<svg xmlns="http://www.w3.org/2000/svg" viewBox="0 0 24 24" width="24" height="24"><defs><clipPath id="a"><path fill="none" d="M2 7.92h20v9.17H2z"/></clipPath></defs><g clip-path="url(#a)"><path d="M2 9.58v7.5h20v-7.5a1.66 1.66 0 0 0-1.67-1.66H3.67A1.66 1.66 0 0 0 2 9.58m18.33 0v5.84h-1.21v-1.29a.84.84 0 0 0-.84-.83.83.83 0 0 0-.83.83v1.29H16v-3.05a.84.84 0 0 0-.84-.83.83.83 0 0 0-.83.83v3.05h-1.5v-1.29a.83.83 0 1 0-1.66 0v1.29H9.69v-3.05a.83.83 0 0 0-.83-.83.84.84 0 0 0-.84.83v3.05H6.55v-1.29a.83.83 0 0 0-.83-.83.84.84 0 0 0-.84.83v1.29H3.67V9.58z" fill="#1b1b1b" fill-rule="evenodd"/></g></svg>