<svg xmlns="http://www.w3.org/2000/svg" viewBox="0 0 24 24" width="24" height="24"><defs><clipPath id="a"><path fill="none" d="M4 3h16v16H4z"/></clipPath></defs><g clip-path="url(#a)" data-name="icn_gift"><path d="M16.27 6.7a3.53 3.53 0 0 0 .17-1A2.66 2.66 0 0 0 13.78 3a2.71 2.71 0 0 0-1.78.69A2.71 2.71 0 0 0 10.22 3a2.66 2.66 0 0 0-2.66 2.67 3.53 3.53 0 0 0 .17 1H4V12h1.07v7h13.86v-7H20V6.71zm-6.06-2a.91.91 0 0 1 .92.92v.91h-.92a.92.92 0 1 1 0-1.83zm1 12.65H6.67V12h4.53zm0-6.94H5.6V8.23h5.6zm1.65-4.79a.92.92 0 1 1 .92.91h-.92zm4.47 11.68H12.8V12h4.53zm1.07-6.94h-5.6V8.23h5.6z" fill="#191a1a" fill-rule="evenodd"/></g></svg>