<svg xmlns="http://www.w3.org/2000/svg" viewBox="0 0 72 24" width="72" height="24"><path d="M15.71 19.26l-2.1 1.92L12 22.63l-1.6-1.45c-3.86-3.48-7.85-7.08-9-10.68-1.25-4 .34-7.72 3.78-8.86 2.74-.9 5.25.49 6.8 2.63 1.56-2.14 4.07-3.53 6.8-2.63 3.44 1.14 5 4.86 3.78 8.85-.06.2-.17.41-.25.61l-1.66-1.8c.61-2.63-.37-4.89-2.53-5.6-2.44-.81-4.4 1.46-5.13 3.18L12 9.26l-1-2.38c-.61-1.47-2.14-3.35-4.1-3.35a3.22 3.22 0 0 0-1 .17C3.58 4.46 2.59 7 3.49 9.86c.95 3 4.88 6.58 8.36 9.72l.16.14.16-.14 2.08-1.9zm1.76-.63a.18.18 0 0 0 .2.2h1.65a.18.18 0 0 0 .21-.2v-3.14a.11.11 0 0 1 .12-.12h3.12a.18.18 0 0 0 .21-.2v-1.6a.18.18 0 0 0-.21-.2h-3.12a.11.11 0 0 1-.12-.12V10.1a.18.18 0 0 0-.21-.2h-1.65a.18.18 0 0 0-.2.2v3.14a.11.11 0 0 1-.12.12h-3.12a.18.18 0 0 0-.2.2v1.59a.18.18 0 0 0 .2.2h3.12a.11.11 0 0 1 .12.12z" fill="#1b1b1b" fill-rule="evenodd"/><path d="M60 22.63l-1.6-1.45c-3.86-3.48-7.85-7.08-9-10.68-1.25-4 .34-7.72 3.78-8.86 2.74-.9 5.25.49 6.8 2.63 1.56-2.14 4.07-3.53 6.8-2.63 3.44 1.14 5 4.86 3.78 8.85-1.12 3.6-5.11 7.2-9 10.68z" fill="red" fill-rule="evenodd"/></svg>