<svg xmlns="http://www.w3.org/2000/svg" viewBox="0 0 72 24" width="72" height="24"><defs><clipPath id="a"><path fill="none" d="M3 6h18v13H3z"/></clipPath><clipPath id="b"><path fill="none" d="M51 6h18v13H51z"/></clipPath></defs><g clip-path="url(#a)" data-name="#1b1b1b"><path data-name="#1b1b1b" d="M19.2 17.3H4.7V7.7h14.6zm0-11.3H4.8A1.82 1.82 0 0 0 3 7.85v9.36A1.77 1.77 0 0 0 4.8 19h14.4a1.77 1.77 0 0 0 1.8-1.79V7.85A1.84 1.84 0 0 0 19.2 6M7.5 7.22a.94.94 0 1 0 .9.93.92.92 0 0 0-.9-.93m0 2.91a.94.94 0 1 0 .9.94.92.92 0 0 0-.9-.94m0 2.92a.94.94 0 1 0 .9.93.92.92 0 0 0-.9-.93m0 2.95a.94.94 0 1 0 .9.94.92.92 0 0 0-.9-.94" fill="#1b1b1b"/></g><g clip-path="url(#b)" data-name="#ababab"><path data-name="#ababab" d="M67.2 17.3H52.7V7.7h14.6zm0-11.3H52.8A1.82 1.82 0 0 0 51 7.85v9.36A1.77 1.77 0 0 0 52.8 19h14.4a1.77 1.77 0 0 0 1.8-1.79V7.85A1.84 1.84 0 0 0 67.2 6M55.5 7.22a.94.94 0 1 0 .9.93.92.92 0 0 0-.9-.93m0 2.91a.94.94 0 1 0 .9.94.92.92 0 0 0-.9-.94m0 2.92a.94.94 0 1 0 .9.93.92.92 0 0 0-.9-.93m0 2.91a.94.94 0 1 0 .9.94.92.92 0 0 0-.9-.94" fill="#ababab"/></g></svg>